<?xml version="1.0" encoding="utf-8"?>
<!-- Generator: Adobe Illustrator 25.0.0, SVG Export Plug-In . SVG Version: 6.00 Build 0)  -->
<svg version="1.0" id="Capa_1" xmlns="http://www.w3.org/2000/svg" xmlns:xlink="http://www.w3.org/1999/xlink" x="0px" y="0px"
	 viewBox="0 0 250 250" style="enable-background:new 0 0 250 250;" xml:space="preserve">
<style type="text/css">
	.st0{fill:#58BEC1;}
</style>
<g id="fondo">
	<path class="st0" d="M145.4,95.7H139v6.6l-40.9-2.7L68,136.4c-10.6-8.7-17.4-21.9-17.4-36.8c0-26.2,21.3-47.5,47.5-47.5
		C123,52.1,143.5,71.3,145.4,95.7z"/>
</g>
<g id="casa">
	<g id="techo">
		<g>
			<g>
				<polygon points="202.9,160 132.1,160.3 99.9,104.9 139.1,108.3 139,119 147.6,119.1 147.8,109 169.7,110.9 				"/>
			</g>
		</g>
	</g>
	<g id="barra_lateral">
		<g>
			<g>
				<polygon points="101.5,106.4 63.8,152.6 63.4,152.2 96.8,109 99.8,104.9 				"/>
			</g>
		</g>
	</g>
	<rect id="estufa" x="141.3" y="97.2" width="8.3" height="22.3"/>
</g>
<g id="nombre">
	<g>
		<path d="M164.9,163.6v8.6c0,3.3,1.5,4.6,3.6,4.6c2.3,0,3.7-1.4,3.7-4.6v-8.6h2v8.5c0,4.5-2.5,6.3-5.8,6.3c-3.1,0-5.5-1.7-5.5-6.2
			v-8.6H164.9z"/>
		<path d="M177.6,178.1v-14.5h2.2l4.9,7.3c1.1,1.7,2,3.2,2.8,4.7l0,0c-0.2-1.9-0.2-3.7-0.2-6v-6.1h1.9V178h-2l-4.9-7.4
			c-1.1-1.6-2.1-3.3-2.9-4.8h-0.1c0.1,1.8,0.2,3.6,0.2,6v6.2h-1.9V178.1z"/>
		<path d="M205.8,170.7c0,5-3.2,7.6-7.1,7.6c-4.1,0-6.9-3-6.9-7.4c0-4.6,3-7.6,7.1-7.6C203.1,163.4,205.8,166.4,205.8,170.7z
			 M193.9,171c0,3.1,1.8,5.9,4.9,5.9c3.1,0,4.9-2.7,4.9-6c0-2.9-1.6-5.9-4.9-5.9C195.5,164.9,193.9,167.8,193.9,171z"/>
	</g>
	<g>
		<path d="M60.8,196.2c-0.8,0.3-2.3,0.7-4.2,0.7c-4.5,0-7.8-2.6-7.8-7.3c0-4.5,3.4-7.6,8.3-7.6c2,0,3.2,0.4,3.8,0.6l-0.5,1.5
			c-0.8-0.3-1.9-0.6-3.2-0.6c-3.7,0-6.2,2.2-6.2,6c0,3.6,2.2,5.8,6.1,5.8c1.2,0,2.5-0.2,3.3-0.6L60.8,196.2z"/>
		<path d="M76.4,189.3c0,5-3.3,7.6-7.4,7.6c-4.2,0-7.1-3-7.1-7.4c0-4.6,3.1-7.6,7.4-7.6C73.6,182,76.4,185,76.4,189.3z M64.1,189.5
			c0,3.1,1.8,5.9,5.1,5.9c3.2,0,5.1-2.7,5.1-6c0-2.9-1.6-5.9-5.1-5.9C65.8,183.5,64.1,186.4,64.1,189.5z"/>
		<path d="M79.1,196.7v-14.5h2.2l5.1,7.3c1.2,1.7,2.1,3.2,2.8,4.7l0,0c-0.2-1.9-0.2-3.7-0.2-6v-6.1h2v14.5h-2.1l-5-7.4
			c-1.1-1.6-2.2-3.3-3-4.8h-0.1c0.1,1.8,0.2,3.6,0.2,6v6.2h-1.9V196.7z"/>
		<path d="M94.3,194.4c0.9,0.5,2.3,0.9,3.7,0.9c2.1,0,3.3-1,3.3-2.5c0-1.4-0.8-2.1-3-2.9c-2.6-0.8-4.2-2.1-4.2-4.1
			c0-2.3,2-3.9,5.1-3.9c1.6,0,2.8,0.3,3.5,0.7l-0.6,1.5c-0.5-0.3-1.6-0.7-3-0.7c-2.2,0-3,1.2-3,2.2c0,1.4,1,2,3.2,2.8
			c2.7,0.9,4,2.1,4,4.3s-1.8,4.2-5.5,4.2c-1.5,0-3.2-0.4-4-0.9L94.3,194.4z"/>
		<path d="M109.2,183.8h-4.8v-1.6h11.7v1.6h-4.8v12.9h-2.1C109.2,196.7,109.2,183.8,109.2,183.8z"/>
		<path d="M117.8,182.4c1-0.2,2.5-0.3,3.9-0.3c2.2,0,3.6,0.4,4.6,1.2c0.8,0.6,1.2,1.6,1.2,2.8c0,1.9-1.3,3.2-3,3.7v0.1
			c1.2,0.4,2,1.4,2.3,2.9c0.5,2,0.9,3.4,1.2,4h-2c-0.3-0.4-0.6-1.7-1.1-3.5c-0.5-2-1.3-2.8-3.2-2.8h-1.9v6.3h-2V182.4z M119.9,189
			h2.1c2.2,0,3.6-1.1,3.6-2.8c0-1.9-1.5-2.7-3.6-2.7c-1,0-1.7,0.1-2,0.2L119.9,189L119.9,189z"/>
		<path d="M132.5,182.2v8.6c0,3.3,1.6,4.6,3.7,4.6c2.4,0,3.9-1.4,3.9-4.6v-8.6h2.1v8.5c0,4.5-2.6,6.3-6,6.3c-3.2,0-5.7-1.7-5.7-6.2
			v-8.6H132.5z"/>
		<path d="M156.8,196.2c-0.8,0.3-2.3,0.7-4.2,0.7c-4.5,0-7.8-2.6-7.8-7.3c0-4.5,3.4-7.6,8.3-7.6c2,0,3.2,0.4,3.8,0.6l-0.5,1.5
			c-0.8-0.3-1.9-0.6-3.2-0.6c-3.7,0-6.2,2.2-6.2,6c0,3.6,2.2,5.8,6.1,5.8c1.2,0,2.5-0.2,3.3-0.6L156.8,196.2z"/>
		<path d="M169.9,196.2c-0.8,0.3-2.3,0.7-4.2,0.7c-4.5,0-7.8-2.6-7.8-7.3c0-4.5,3.4-7.6,8.3-7.6c2,0,3.2,0.4,3.8,0.6l-0.5,1.5
			c-0.8-0.3-1.9-0.6-3.2-0.6c-3.7,0-6.2,2.2-6.2,6c0,3.6,2.2,5.8,6.1,5.8c1.2,0,2.5-0.2,3.3-0.6L169.9,196.2z"/>
		<path d="M174.5,182.2v14.5h-2v-14.5H174.5z"/>
		<path d="M191.6,189.3c0,5-3.3,7.6-7.4,7.6c-4.2,0-7.1-3-7.1-7.4c0-4.6,3.1-7.6,7.4-7.6C188.8,182,191.6,185,191.6,189.3z
			 M179.3,189.5c0,3.1,1.8,5.9,5.1,5.9c3.2,0,5.1-2.7,5.1-6c0-2.9-1.6-5.9-5.1-5.9C181,183.5,179.3,186.4,179.3,189.5z"/>
		<path d="M194.3,196.7v-14.5h2.2l5.1,7.3c1.2,1.7,2.1,3.2,2.8,4.7l0,0c-0.2-1.9-0.2-3.7-0.2-6v-6.1h1.9v14.5H204l-5-7.4
			c-1.1-1.6-2.2-3.3-3-4.8h-0.1c0.1,1.8,0.2,3.6,0.2,6v6.2h-1.8V196.7z"/>
		<path d="M218,189.9h-6.2v5.2h6.9v1.6h-8.9v-14.5h8.6v1.6h-6.5v4.6h6.2v1.5H218z"/>
		<path d="M221,194.4c0.9,0.5,2.3,0.9,3.7,0.9c2.1,0,3.3-1,3.3-2.5c0-1.4-0.8-2.1-3-2.9c-2.6-0.8-4.2-2.1-4.2-4.1
			c0-2.3,2-3.9,5.1-3.9c1.6,0,2.8,0.3,3.5,0.7l-0.6,1.5c-0.5-0.3-1.6-0.7-3-0.7c-2.2,0-3,1.2-3,2.2c0,1.4,1,2,3.2,2.8
			c2.7,0.9,4,2.1,4,4.3s-1.8,4.2-5.5,4.2c-1.5,0-3.2-0.4-4-0.9L221,194.4z"/>
	</g>
	<g>
		<path d="M81.3,175.9c0.9,0.5,2.2,0.9,3.6,0.9c2,0,3.2-1,3.2-2.5c0-1.4-0.8-2.1-2.9-2.9c-2.5-0.8-4.1-2.1-4.1-4.1
			c0-2.3,2-3.9,5-3.9c1.6,0,2.7,0.3,3.4,0.7l-0.5,1.5c-0.5-0.3-1.5-0.7-2.9-0.7c-2.1,0-2.9,1.2-2.9,2.2c0,1.4,0.9,2,3.1,2.8
			c2.6,0.9,3.9,2.1,3.9,4.3s-1.8,4.2-5.4,4.2c-1.5,0-3.1-0.4-3.9-0.9L81.3,175.9z"/>
		<path d="M95.8,165.2h-4.7v-1.6h11.4v1.6h-4.7v12.9h-2C95.8,178.1,95.8,165.2,95.8,165.2z"/>
		<path d="M106.2,163.6v8.6c0,3.3,1.5,4.6,3.6,4.6c2.3,0,3.7-1.4,3.7-4.6v-8.6h2v8.5c0,4.5-2.5,6.3-5.8,6.3c-3.2,0-5.5-1.7-5.5-6.2
			v-8.6H106.2z"/>
		<path d="M119,163.8c1.2-0.2,2.6-0.3,4.2-0.3c2.9,0,4.9,0.6,6.2,1.8c1.4,1.2,2.2,2.9,2.2,5.2c0,2.4-0.8,4.3-2.2,5.6
			c-1.4,1.4-3.8,2.1-6.8,2.1c-1.4,0-2.6-0.1-3.6-0.2C119,178,119,163.8,119,163.8z M121,176.7c0.5,0.1,1.2,0.1,2,0.1
			c4.2,0,6.6-2.2,6.6-6.2c0-3.4-2-5.6-6.2-5.6c-1,0-1.8,0.1-2.3,0.2v11.5H121z"/>
		<path d="M136.2,163.6v14.5h-2v-14.5H136.2z"/>
		<path d="M152.8,170.7c0,5-3.2,7.6-7.1,7.6c-4.1,0-6.9-3-6.9-7.4c0-4.6,3-7.6,7.1-7.6C150.1,163.4,152.8,166.4,152.8,170.7z
			 M140.9,171c0,3.1,1.8,5.9,4.9,5.9c3.2,0,4.9-2.7,4.9-6c0-2.9-1.6-5.9-4.9-5.9C142.5,164.9,140.9,167.8,140.9,171z"/>
	</g>
</g>
</svg>
