<?xml version="1.0" standalone="no"?>
<!DOCTYPE svg PUBLIC "-//W3C//DTD SVG 20010904//EN"
 "http://www.w3.org/TR/2001/REC-SVG-20010904/DTD/svg10.dtd">
<svg version="1.0" xmlns="http://www.w3.org/2000/svg"
 width="500.000000pt" height="500.000000pt" viewBox="0 0 500.000000 500.000000"
 preserveAspectRatio="xMidYMid meet">

<g transform="translate(0.000000,500.000000) scale(0.100000,-0.100000)"
fill="#000000" stroke="none">
<path d="M1835 4434 l-640 -555 -3 437 c-1 302 -6 441 -13 451 -9 10 -60 13
-234 13 -123 0 -230 -3 -239 -6 -14 -6 -16 -73 -16 -658 l0 -652 -118 -117
-119 -117 -6 -152 c-12 -256 -9 -562 5 -576 7 -7 15 -12 18 -12 4 0 58 45 121
99 l114 100 3 -385 2 -384 35 0 35 0 -2 442 -3 443 -21 3 c-16 2 -53 -24 -130
-92 -59 -53 -110 -94 -112 -91 -2 2 -1 132 3 289 l8 285 118 117 119 116 0
639 0 639 178 -2 177 -3 5 -470 5 -470 22 -3 c16 -2 180 135 684 572 l662 575
78 -67 c43 -37 492 -422 998 -857 l920 -790 0 -293 c1 -161 -2 -291 -7 -289
-4 3 -50 39 -102 81 -52 42 -103 76 -112 76 -10 0 -22 -9 -28 -19 -6 -13 -10
-165 -10 -425 l0 -406 40 0 40 0 2 366 3 366 83 -67 c46 -37 95 -73 110 -81
52 -26 52 -23 52 366 l0 357 -1025 881 c-563 485 -1032 882 -1042 882 -10 0
-306 -250 -658 -556z"/>
<path d="M330 1240 l0 -210 150 0 150 0 0 30 0 30 -115 0 -115 0 0 60 0 60
100 0 100 0 0 30 0 30 -100 0 -100 0 0 60 0 60 115 0 115 0 0 30 0 30 -150 0
-150 0 0 -210z"/>
<path d="M813 1443 c-12 -2 -36 -17 -53 -33 -25 -23 -30 -36 -30 -74 0 -61 25
-86 116 -116 79 -26 104 -44 104 -75 0 -56 -93 -67 -173 -22 l-47 26 -15 -29
c-14 -28 -14 -29 18 -48 53 -32 106 -45 164 -39 104 11 157 84 119 164 -16 35
-37 47 -149 87 -114 42 -64 126 57 95 25 -6 49 -15 52 -20 9 -16 20 -10 32 16
16 35 17 34 -30 55 -40 18 -110 24 -165 13z"/>
<path d="M1080 1420 l0 -30 65 0 65 0 0 -180 0 -180 35 0 35 0 0 180 0 180 71
0 70 0 -3 28 -3 27 -167 3 -168 2 0 -30z"/>
<path d="M1492 1291 c3 -174 7 -187 72 -235 40 -30 172 -30 212 0 65 48 69 61
72 235 l3 159 -35 0 -36 0 0 -140 c0 -155 -9 -187 -55 -208 -53 -24 -132 -5
-155 37 -5 11 -10 85 -10 165 l0 146 -36 0 -35 0 3 -159z"/>
<path d="M1970 1240 l0 -210 96 0 c117 0 171 13 218 52 53 43 70 82 70 158 0
76 -17 115 -70 158 -47 39 -101 52 -218 52 l-96 0 0 -210z m240 128 c57 -30
83 -76 77 -141 -8 -91 -68 -137 -179 -137 l-68 0 0 150 0 150 63 0 c45 0 75
-6 107 -22z"/>
<path d="M2450 1240 l0 -210 35 0 35 0 0 210 0 210 -35 0 -35 0 0 -210z"/>
<path d="M2762 1437 c-148 -54 -189 -243 -76 -349 109 -102 293 -67 355 67 78
169 -98 347 -279 282z m148 -66 c107 -56 107 -210 0 -263 -101 -51 -220 20
-220 131 0 113 120 186 220 132z"/>
<path d="M3320 1308 c0 -163 13 -207 71 -249 29 -20 46 -24 111 -24 85 0 114
14 156 75 20 31 22 44 22 186 l0 154 -30 0 -30 0 0 -117 c-1 -193 -18 -232
-109 -241 -47 -4 -53 -2 -86 31 l-35 35 0 146 0 146 -35 0 -35 0 0 -142z"/>
<path d="M3810 1240 l0 -210 30 0 30 0 0 145 c0 80 3 145 8 145 4 0 56 -65
116 -145 102 -137 110 -145 142 -145 l34 0 0 210 0 210 -35 0 -35 0 0 -152 0
-152 -112 152 c-105 140 -115 151 -145 152 l-33 0 0 -210z"/>
<path d="M4418 1441 c-95 -31 -150 -105 -150 -202 0 -84 36 -143 111 -181 155
-79 324 17 324 183 0 113 -82 197 -200 205 -32 2 -70 -1 -85 -5z m150 -78 c48
-36 66 -70 66 -123 0 -56 -20 -91 -74 -127 -106 -73 -255 38 -221 165 11 41
50 84 91 101 35 15 108 7 138 -16z"/>
<path d="M3497 692 c-31 -35 -10 -45 32 -16 18 13 20 18 10 25 -20 12 -24 11
-42 -9z"/>
<path d="M519 591 c-40 -40 -41 -43 -37 -93 4 -42 11 -57 37 -80 17 -15 42
-30 56 -34 54 -13 143 21 119 46 -9 9 -17 9 -32 1 -27 -14 -83 -13 -103 2 -89
68 -7 203 93 153 22 -11 35 -13 42 -6 19 19 -20 43 -78 48 -54 4 -57 3 -97
-37z"/>
<path d="M824 597 c-29 -26 -37 -42 -40 -77 -6 -55 9 -86 56 -118 29 -19 44
-23 84 -19 94 9 145 103 101 187 -20 39 -63 60 -120 60 -37 0 -52 -6 -81 -33z
m154 -33 c51 -58 12 -144 -66 -144 -96 0 -127 119 -44 165 36 20 81 11 110
-21z"/>
<path d="M1140 505 c0 -118 1 -125 20 -125 19 0 20 7 20 92 l0 92 68 -92 c49
-67 73 -91 90 -92 22 0 22 2 22 125 0 118 -1 125 -20 125 -18 0 -20 -7 -20
-85 0 -47 -3 -85 -7 -85 -5 1 -36 39 -71 85 -42 57 -69 85 -82 85 -19 0 -20
-7 -20 -125z"/>
<path d="M1485 605 c-14 -13 -25 -31 -25 -38 0 -27 35 -57 85 -75 74 -26 74
-71 0 -72 -17 0 -41 7 -54 16 -19 14 -25 14 -32 3 -13 -21 -12 -24 26 -42 77
-37 155 -7 155 58 0 39 -9 48 -75 72 -55 20 -68 45 -35 63 16 8 30 8 57 -1 29
-9 37 -9 44 2 14 22 -19 39 -73 39 -39 0 -54 -5 -73 -25z"/>
<path d="M1710 615 c0 -11 11 -15 40 -15 l40 0 0 -110 c0 -103 1 -110 20 -110
18 0 20 8 22 108 l3 107 38 3 c24 2 37 8 37 18 0 11 -20 14 -100 14 -82 0
-100 -3 -100 -15z"/>
<path d="M2000 505 c0 -118 1 -125 20 -125 17 0 20 7 20 40 0 39 1 40 35 40
29 0 39 -6 61 -40 15 -23 35 -40 45 -40 24 0 24 4 -5 46 l-24 35 24 24 c33 33
33 87 -1 120 -21 22 -33 25 -100 25 l-75 0 0 -125z m134 85 c21 -8 26 -16 26
-45 0 -40 -23 -55 -86 -55 l-34 0 0 55 0 55 34 0 c19 0 46 -4 60 -10z"/>
<path d="M2302 533 c5 -94 6 -98 38 -126 29 -26 38 -29 83 -24 39 3 56 11 74
31 21 24 23 37 23 122 0 87 -1 94 -20 94 -18 0 -20 -7 -20 -88 0 -100 -12
-122 -66 -122 -57 0 -67 18 -72 119 -4 83 -6 91 -25 91 -19 0 -19 -5 -15 -97z"/>
<path d="M2680 617 c-31 -16 -70 -73 -70 -104 0 -98 105 -162 191 -117 32 16
34 41 3 36 -87 -16 -100 -15 -127 18 -15 17 -27 40 -27 51 0 32 26 74 55 87
34 15 44 15 79 -3 41 -21 61 -2 27 26 -27 22 -93 25 -131 6z"/>
<path d="M2980 617 c-31 -16 -70 -73 -70 -104 0 -98 105 -162 191 -117 32 16
34 41 3 36 -87 -16 -100 -15 -127 18 -15 17 -27 40 -27 51 0 32 26 74 55 87
34 15 44 15 79 -3 41 -21 61 -2 27 26 -27 22 -93 25 -131 6z"/>
<path d="M3230 505 c0 -118 1 -125 20 -125 19 0 20 7 20 125 0 118 -1 125 -20
125 -19 0 -20 -7 -20 -125z"/>
<path d="M3426 611 c-39 -26 -55 -57 -56 -109 0 -34 6 -49 33 -78 28 -30 42
-37 83 -41 83 -8 144 47 144 131 0 31 -7 45 -39 77 -34 35 -44 39 -87 39 -32
0 -60 -7 -78 -19z m142 -47 c30 -34 29 -83 -3 -118 -53 -57 -155 -20 -155 56
0 88 100 127 158 62z"/>
<path d="M3730 505 c0 -118 1 -125 20 -125 17 0 19 8 22 87 l3 87 65 -87 c91
-124 100 -120 100 38 0 104 -2 125 -15 125 -12 0 -15 -16 -15 -85 0 -47 -4
-85 -8 -85 -4 0 -36 38 -71 85 -41 55 -70 85 -82 85 -18 0 -19 -9 -19 -125z"/>
<path d="M4060 505 l0 -125 90 0 c83 0 90 1 90 20 0 18 -7 20 -70 20 l-70 0 0
35 0 35 60 0 c46 0 60 3 60 15 0 10 -15 15 -57 17 l-58 3 -3 38 -3 37 70 0
c56 0 71 3 71 15 0 12 -17 15 -90 15 l-90 0 0 -125z"/>
<path d="M4362 614 c-15 -10 -22 -25 -22 -48 0 -40 9 -49 75 -73 41 -15 50
-23 50 -43 0 -21 -5 -26 -33 -28 -18 -2 -47 4 -64 12 -24 13 -33 13 -39 4 -11
-17 -2 -28 37 -44 43 -18 78 -18 113 1 64 33 44 98 -39 130 -59 23 -74 47 -40
65 16 8 30 8 56 0 28 -9 39 -9 47 0 34 33 -96 56 -141 24z"/>
</g>
</svg>
