<svg xmlns="http://www.w3.org/2000/svg" viewBox="0 0 200 200"><defs><style>.cls-1{fill:#fff;}.cls-2{fill:#58bec1;}.cls-3{fill:#020202;}.cls-4,.cls-5{fill:#1d1d1b;}.cls-5{font-size:18px;font-family:GillSansMT, Gill Sans MT;}.cls-6{letter-spacing:-0.03em;}</style></defs><g id="fondo"><rect class="cls-1" width="200" height="200"/></g><g id="logo"><g id="imagen"><path class="cls-2" d="M66.16,75l-26.83,31.6A40,40,0,0,1,23.55,75c0-22.31,19.23-40.67,42.61-40.67S108.77,52.73,108.77,75c0,1,0,1.91-.1,2.87Z"/><rect x="65.56" y="81.68" width="78.18" height="47.52" transform="translate(8.2 -7.55) rotate(4.3)"/><rect class="cls-1" x="57.07" y="86.1" width="28.94" height="58.19" transform="translate(-53.34 62.35) rotate(-35.22)"/><rect x="49.22" y="73.34" width="3" height="56.11" transform="translate(76.25 -9.07) rotate(39.59)"/><rect class="cls-1" x="101.86" y="68.02" width="10.87" height="24.95"/><rect x="104.65" y="69.8" width="8.26" height="23.79"/><rect class="cls-1" x="20.69" y="103.95" width="56.37" height="2.65" transform="translate(-62.44 72.39) rotate(-48.64)"/><rect x="67.14" y="82.19" width="0.74" height="3.55" transform="translate(-37.89 61.62) rotate(-39.23)"/><rect x="136.99" y="110.47" width="7.58" height="10.23" transform="translate(-18.61 27.42) rotate(-10.44)"/><rect x="140.97" y="100.55" width="12.67" height="22.27" transform="translate(-37.44 105.41) rotate(-35.22)"/><rect class="cls-3" x="145.82" y="118.27" width="4.7" height="3.29" transform="matrix(0.82, -0.58, 0.58, 0.82, -42.04, 107.41)"/><rect class="cls-2" x="45.17" y="87.83" width="3.32" height="14.77" transform="translate(72.77 -7.68) rotate(40.34)"/><rect x="98.73" y="118.98" width="65.98" height="9.61"/><rect class="cls-4" x="138.94" y="123.66" width="0.18" height="0.45"/><rect class="cls-1" x="93.77" y="128.57" width="69.51" height="10.88"/><rect class="cls-1" x="118.41" y="85.42" width="68.13" height="20.94" transform="translate(142.87 -83.98) rotate(54.78)"/></g><g id="texto"><text class="cls-5" transform="translate(50.94 144.51) scale(1.03 1)">STUDIO UNO</text><text class="cls-5" transform="translate(22 159.28) scale(1.03 1)">CONST<tspan class="cls-6" x="60.73" y="0">R</tspan><tspan x="71.07" y="0">UCCIONES</tspan></text></g></g></svg>